HIERARCHY
ROOT Root
{
  OFFSET 0.0 0.0 0.0
  CHANNELS 6 Xposition Yposition Zposition Zrotation Yrotation Xrotation
  JOINT Hips
  {
    OFFSET 0.0 100.0 0.0
    CHANNELS 6 Xposition Yposition Zposition Zrotation Yrotation Xrotation
    JOINT Spine1
    {
      OFFSET 5.003913 -0.037094 -0.013727
      CHANNELS 3 Zrotation Yrotation Xrotation
      JOINT Spine2
      {
        OFFSET 7.125363 -1e-06 0.0
        CHANNELS 3 Zrotation Yrotation Xrotation
        JOINT Chest
        {
          OFFSET 7.594027 1e-06 0.0
          CHANNELS 3 Zrotation Yrotation Xrotation
          JOINT Neck1
          {
            OFFSET 26.313086 -0.460272 -0.181672
            CHANNELS 3 Zrotation Yrotation Xrotation
            JOINT Neck2
            {
              OFFSET 8.045911 0.0 0.0
              CHANNELS 3 Zrotation Yrotation Xrotation
              JOINT Head
              {
                OFFSET 6.432774 0.0 0.0
                CHANNELS 3 Zrotation Yrotation Xrotation
                JOINT HeadEnd
                {
                  OFFSET 16.169773 0.06451 0.00362
                  CHANNELS 3 Zrotation Yrotation Xrotation
                }
                JOINT Jaw
                {
                  OFFSET 0.108741 3.12938 0.002639
                  CHANNELS 3 Zrotation Yrotation Xrotation
                }
                JOINT LeftEye
                {
                  OFFSET 4.45173 8.166359 3.206392
                  CHANNELS 3 Zrotation Yrotation Xrotation
                }
                JOINT RightEye
                {
                  OFFSET 4.436895 8.135758 -3.222429
                  CHANNELS 3 Zrotation Yrotation Xrotation
                }
              }
            }
          }
          JOINT LeftShoulder
          {
            OFFSET 23.218927 5.195579 1.621656
            CHANNELS 3 Zrotation Yrotation Xrotation
            JOINT LeftArm
            {
              OFFSET 15.902118 2e-06 -2e-06
              CHANNELS 3 Zrotation Yrotation Xrotation
              JOINT LeftForeArm
              {
                OFFSET 28.739307 0.0 -1e-06
                CHANNELS 3 Zrotation Yrotation Xrotation
                JOINT LeftHand
                {
                  OFFSET 27.093981 -4e-06 0.0
                  CHANNELS 3 Zrotation Yrotation Xrotation
                  JOINT LeftHandThumb1
                  {
                    OFFSET 2.276781 3.380274 0.83384
                    CHANNELS 3 Zrotation Yrotation Xrotation
                    JOINT LeftHandThumb2
                    {
                      OFFSET 4.705309 -1e-06 -1e-06
                      CHANNELS 3 Zrotation Yrotation Xrotation
                      JOINT LeftHandThumb3
                      {
                        OFFSET 2.798515 0.0 3e-06
                        CHANNELS 3 Zrotation Yrotation Xrotation
                        JOINT LeftHandThumbEnd
                        {
                          OFFSET 3.180793 4e-06 -4e-06
                          CHANNELS 3 Zrotation Yrotation Xrotation
                        }
                      }
                    }
                  }
                  JOINT LeftHandIndex1
                  {
                    OFFSET 3.247786 2.352677 0.137192
                    CHANNELS 3 Zrotation Yrotation Xrotation
                    JOINT LeftHandIndex2
                    {
                      OFFSET 6.367095 1e-06 0.0
                      CHANNELS 3 Zrotation Yrotation Xrotation
                      JOINT LeftHandIndex3
                      {
                        OFFSET 3.662364 0.0 0.0
                        CHANNELS 3 Zrotation Yrotation Xrotation
                        JOINT LeftHandIndex4
                        {
                          OFFSET 2.329242 4e-06 -4e-06
                          CHANNELS 3 Zrotation Yrotation Xrotation
                          JOINT LeftHandIndexEnd
                          {
                            OFFSET 2.767823 1e-06 0.0
                            CHANNELS 3 Zrotation Yrotation Xrotation
                          }
                        }
                      }
                    }
                  }
                  JOINT LeftHandMiddle1
                  {
                    OFFSET 3.163612 0.945023 -0.406112
                    CHANNELS 3 Zrotation Yrotation Xrotation
                    JOINT LeftHandMiddle2
                    {
                      OFFSET 6.276789 3e-06 0.0
                      CHANNELS 3 Zrotation Yrotation Xrotation
                      JOINT LeftHandMiddle3
                      {
                        OFFSET 4.35652 -1e-06 4e-06
                        CHANNELS 3 Zrotation Yrotation Xrotation
                        JOINT LeftHandMiddle4
                        {
                          OFFSET 2.996877 0.0 8e-06
                          CHANNELS 3 Zrotation Yrotation Xrotation
                          JOINT LeftHandMiddleEnd
                          {
                            OFFSET 2.323256 3e-06 -4e-06
                            CHANNELS 3 Zrotation Yrotation Xrotation
                          }
                        }
                      }
                    }
                  }
                  JOINT LeftHandRing1
                  {
                    OFFSET 2.882606 -0.309162 0.107445
                    CHANNELS 3 Zrotation Yrotation Xrotation
                    JOINT LeftHandRing2
                    {
                      OFFSET 6.033198 0.0 4e-06
                      CHANNELS 3 Zrotation Yrotation Xrotation
                      JOINT LeftHandRing3
                      {
                        OFFSET 4.350578 3e-06 0.0
                        CHANNELS 3 Zrotation Yrotation Xrotation
                        JOINT LeftHandRing4
                        {
                          OFFSET 2.651321 2e-06 -7e-06
                          CHANNELS 3 Zrotation Yrotation Xrotation
                          JOINT LeftHandRingEnd
                          {
                            OFFSET 1.937663 1e-06 -4e-06
                            CHANNELS 3 Zrotation Yrotation Xrotation
                          }
                        }
                      }
                    }
                  }
                  JOINT LeftHandPinky1
                  {
                    OFFSET 2.865315 -1.525436 0.575687
                    CHANNELS 3 Zrotation Yrotation Xrotation
                    JOINT LeftHandPinky2
                    {
                      OFFSET 5.54936 1e-06 -8e-06
                      CHANNELS 3 Zrotation Yrotation Xrotation
                      JOINT LeftHandPinky3
                      {
                        OFFSET 3.070974 0.0 -4e-06
                        CHANNELS 3 Zrotation Yrotation Xrotation
                        JOINT LeftHandPinky4
                        {
                          OFFSET 1.549672 1e-06 0.0
                          CHANNELS 3 Zrotation Yrotation Xrotation
                          JOINT LeftHandPinkyEnd
                          {
                            OFFSET 1.952123 0.0 0.0
                            CHANNELS 3 Zrotation Yrotation Xrotation
                          }
                        }
                      }
                    }
                  }
                }
              }
            }
          }
          JOINT RightShoulder
          {
            OFFSET 23.161716 5.296122 -1.380114
            CHANNELS 3 Zrotation Yrotation Xrotation
            JOINT RightArm
            {
              OFFSET -16.027195 -2e-06 1.1e-05
              CHANNELS 3 Zrotation Yrotation Xrotation
              JOINT RightForeArm
              {
                OFFSET -28.736639 4e-06 2e-06
                CHANNELS 3 Zrotation Yrotation Xrotation
                JOINT RightHand
                {
                  OFFSET -27.133619 6e-06 0.0
                  CHANNELS 3 Zrotation Yrotation Xrotation
                  JOINT RightHandThumb1
                  {
                    OFFSET -2.274328 -3.351035 -0.83067
                    CHANNELS 3 Zrotation Yrotation Xrotation
                    JOINT RightHandThumb2
                    {
                      OFFSET -4.703594 -3e-06 2e-06
                      CHANNELS 3 Zrotation Yrotation Xrotation
                      JOINT RightHandThumb3
                      {
                        OFFSET -2.794935 -4e-06 -3e-06
                        CHANNELS 3 Zrotation Yrotation Xrotation
                        JOINT RightHandThumbEnd
                        {
                          OFFSET -3.183852 4e-06 1e-06
                          CHANNELS 3 Zrotation Yrotation Xrotation
                        }
                      }
                    }
                  }
                  JOINT RightHandIndex1
                  {
                    OFFSET -3.253496 -2.33755 -0.127667
                    CHANNELS 3 Zrotation Yrotation Xrotation
                    JOINT RightHandIndex2
                    {
                      OFFSET -6.344434 0.0 0.0
                      CHANNELS 3 Zrotation Yrotation Xrotation
                      JOINT RightHandIndex3
                      {
                        OFFSET -3.654871 0.0 -8e-06
                        CHANNELS 3 Zrotation Yrotation Xrotation
                        JOINT RightHandIndex4
                        {
                          OFFSET -2.327586 -1e-06 0.0
                          CHANNELS 3 Zrotation Yrotation Xrotation
                          JOINT RightHandIndexEnd
                          {
                            OFFSET -2.770001 3e-06 8e-06
                            CHANNELS 3 Zrotation Yrotation Xrotation
                          }
                        }
                      }
                    }
                  }
                  JOINT RightHandMiddle1
                  {
                    OFFSET -3.168223 -0.944764 0.411762
                    CHANNELS 3 Zrotation Yrotation Xrotation
                    JOINT RightHandMiddle2
                    {
                      OFFSET -6.266691 -1e-06 -4e-06
                      CHANNELS 3 Zrotation Yrotation Xrotation
                      JOINT RightHandMiddle3
                      {
                        OFFSET -4.348901 0.0 0.0
                        CHANNELS 3 Zrotation Yrotation Xrotation
                        JOINT RightHandMiddle4
                        {
                          OFFSET -3.00024 2e-06 -4e-06
                          CHANNELS 3 Zrotation Yrotation Xrotation
                          JOINT RightHandMiddleEnd
                          {
                            OFFSET -2.321477 -4e-06 -4e-06
                            CHANNELS 3 Zrotation Yrotation Xrotation
                          }
                        }
                      }
                    }
                  }
                  JOINT RightHandRing1
                  {
                    OFFSET -2.885654 0.293261 -0.119232
                    CHANNELS 3 Zrotation Yrotation Xrotation
                    JOINT RightHandRing2
                    {
                      OFFSET -6.032835 -1e-06 -4e-06
                      CHANNELS 3 Zrotation Yrotation Xrotation
                      JOINT RightHandRing3
                      {
                        OFFSET -4.33881 0.0 -4e-06
                        CHANNELS 3 Zrotation Yrotation Xrotation
                        JOINT RightHandRing4
                        {
                          OFFSET -2.654903 -4e-06 -4e-06
                          CHANNELS 3 Zrotation Yrotation Xrotation
                          JOINT RightHandRingEnd
                          {
                            OFFSET -1.935122 0.0 4e-06
                            CHANNELS 3 Zrotation Yrotation Xrotation
                          }
                        }
                      }
                    }
                  }
                  JOINT RightHandPinky1
                  {
                    OFFSET -2.866241 1.503904 -0.60527
                    CHANNELS 3 Zrotation Yrotation Xrotation
                    JOINT RightHandPinky2
                    {
                      OFFSET -5.553177 -2e-06 0.0
                      CHANNELS 3 Zrotation Yrotation Xrotation
                      JOINT RightHandPinky3
                      {
                        OFFSET -3.062664 -1e-06 -4e-06
                        CHANNELS 3 Zrotation Yrotation Xrotation
                        JOINT RightHandPinky4
                        {
                          OFFSET -1.546529 2e-06 4e-06
                          CHANNELS 3 Zrotation Yrotation Xrotation
                          JOINT RightHandPinkyEnd
                          {
                            OFFSET -1.952341 0.0 -4e-06
                            CHANNELS 3 Zrotation Yrotation Xrotation
                          }
                        }
                      }
                    }
                  }
                }
              }
            }
          }
        }
      }
    }
    JOINT LeftLeg
    {
      OFFSET -8.443107 2.567604 10.043214
      CHANNELS 3 Zrotation Yrotation Xrotation
      JOINT LeftShin
      {
        OFFSET 43.229198 1e-06 -1e-06
        CHANNELS 3 Zrotation Yrotation Xrotation
        JOINT LeftFoot
        {
          OFFSET 42.298611 1e-06 1e-06
          CHANNELS 3 Zrotation Yrotation Xrotation
          JOINT LeftToeBase
          {
            OFFSET 14.165858 1e-06 0.0
            CHANNELS 3 Zrotation Yrotation Xrotation
            JOINT LeftToeEnd
            {
              OFFSET 6.7141 -0.234461 0.0
              CHANNELS 3 Zrotation Yrotation Xrotation
            }
          }
        }
      }
    }
    JOINT RightLeg
    {
      OFFSET -8.303923 2.592729 -10.047278
      CHANNELS 3 Zrotation Yrotation Xrotation
      JOINT RightShin
      {
        OFFSET -43.369682 0.0 1e-06
        CHANNELS 3 Zrotation Yrotation Xrotation
        JOINT RightFoot
        {
          OFFSET -42.260784 4e-06 2e-06
          CHANNELS 3 Zrotation Yrotation Xrotation
          JOINT RightToeBase
          {
            OFFSET -14.222245 -2e-06 -1e-06
            CHANNELS 3 Zrotation Yrotation Xrotation
            JOINT RightToeEnd
            {
              OFFSET -6.660062 0.232574 -2e-06
              CHANNELS 3 Zrotation Yrotation Xrotation
            }
          }
        }
      }
    }
  }
}
MOTION
Frames: 4
Frame Time: 0.03333333333333333
0.0 0.0 0.0 0.0 -0.0 0.0 -2.95501 96.875557 -2.529637 92.391556 2.790498 89.449013 7.074097 0.849612 -0.471747 -8.859139 -0.464722 -0.747287 20.179247 -0.636581 -3.640485 26.501438 -3.673078 2.902746 -2.531025 -0.613698 -3.261646 -35.013485 -1.544779 -2.779433 6e-06 0.0 0.0 0.028923 0.023069 -0.131304 0.112948 0.065384 -0.106213 0.093335 -0.026973 -0.152909 -89.277809 -76.714722 108.960297 33.476212 -45.925003 14.089239 37.278183 -1.136605 -0.09916 13.77046 7.570269 22.9587 17.636633 -26.322735 52.411198 -19.46666 -14.395597 29.410389 -1e-06 -8.774822 -2e-06 15.970557 -18.045462 6.009789 -0.609776 -1.795653 -3.889326 -4.807088 -11.046811 -2.93785 5e-06 -20.976019 1e-06 -5.01997 -25.03356 -4.03188 6e-06 0.0 -0.0 -10.634535 -5.686969 -3.565588 10.573277 -17.922947 -3.1139 4e-06 -13.821209 2e-06 -0.501777 -31.181505 -4.027013 -11.406041 -59.676785 7.44532 -13.982714 -7.150196 -2.875042 13.772731 -8.401493 -3.218243 0.347735 -34.211552 0.771659 -0.963029 -17.73337 2.621021 -0.0 -0.0 1e-06 -17.346416 -20.095213 -4.201783 21.757561 -1.638377 3.866429 2e-06 -6.338824 1e-06 -1.697589 -22.591745 -6.194005 -0.0 -4e-06 -3e-06 91.781136 -78.105721 110.459412 39.024475 -46.872078 10.047243 40.333797 0.132844 -0.220454 0.504862 16.071793 3.778887 22.182112 -20.375891 49.933304 -16.701815 -16.743528 28.476524 -3e-06 -12.6906 1e-06 16.47327 -17.54681 2.273377 -0.105919 -1.513855 -4.275881 -5.03904 -5.612872 -2.953555 4e-06 -11.020525 -1e-06 -6.111297 -15.895334 -3.84047 0.0 0.0 -3e-06 -10.283368 -5.680286 -4.341841 11.028294 -11.302407 -2.372634 -1.384268 -14.238581 -6.320119 -0.625437 -26.924189 -3.827601 -3.898394 -49.323067 -4.132466 -13.708523 -7.363475 -3.720939 18.14115 -14.052739 -3.242675 8e-06 -18.78727 -1e-06 -0.429711 -8.456043 2.555504 -1e-06 0.0 0.0 -15.923532 -20.094482 -5.473584 30.419205 -7.190826 1.735925 3e-06 -8.162925 -2e-06 -1.861898 -22.861471 -6.167945 -0.0 -4e-06 -0.0 161.434799 -5.920136 -6.846725 21.379045 0.022289 0.182291 -68.575195 4.725545 -5.698501 -8.269361 1.551897 2.06816 -0.999999 0.0 -0.0 -4.334448 -6.170838 -8.848228 37.724644 0.023001 0.192444 -91.580559 7.680371 -2.432614 -9.493172 0.810882 1.657419 -1.000001 -0.0 -0.0 
0.0 0.0 0.0 0.0 -0.0 0.0 -2.270827 96.949539 -1.599072 92.055168 2.545038 88.537399 7.074247 0.744095 -0.474455 -8.91729 -0.463821 -0.70257 20.140713 -0.681317 -3.704582 26.344427 -3.65064 2.880064 -2.511169 -0.649987 -3.420702 -34.843239 -1.557675 -3.09082 6e-06 -0.0 0.0 0.009399 0.014432 -0.10687 0.073278 0.06563 -0.081861 0.054234 -0.045113 -0.130666 -89.169304 -76.731964 108.942261 33.593327 -45.758595 13.70064 37.541924 -1.011613 -0.05949 13.876854 7.619117 22.913799 17.636629 -26.322729 52.411179 -19.466654 -14.395594 29.410381 -0.0 -8.774821 -1e-06 15.947546 -18.006359 5.985951 -0.609776 -1.795653 -3.889327 -4.80709 -11.046813 -2.937849 3e-06 -20.976019 0.0 -5.019972 -25.03356 -4.031881 5e-06 -0.0 1e-06 -10.634533 -5.686972 -3.565586 10.573271 -17.922951 -3.113901 2e-06 -13.821209 0.0 -0.501779 -31.181505 -4.027018 -11.274692 -59.722969 7.376862 -13.982714 -7.150199 -2.87504 13.772729 -8.401491 -3.218243 0.347731 -34.211555 0.771655 -0.963028 -17.733372 2.621018 0.0 -0.0 0.0 -17.346418 -20.095219 -4.201779 21.757557 -1.638374 3.866428 1e-06 -6.338823 1e-06 -1.69759 -22.591747 -6.194007 0.0 -3e-06 -4e-06 91.354584 -77.919998 110.916061 39.183174 -47.090679 9.949113 40.520935 0.150098 -0.162621 0.667097 16.119467 3.816658 22.18211 -20.375891 49.933319 -16.701811 -16.74353 28.476526 -3e-06 -12.690601 3e-06 16.470848 -17.563112 2.279538 -0.105919 -1.513855 -4.275878 -5.039042 -5.612871 -2.953557 2e-06 -11.020521 -2e-06 -6.1113 -15.89533 -3.840473 -0.0 -0.0 -1e-06 -10.283368 -5.680288 -4.341835 11.028294 -11.302404 -2.372637 -1.38427 -14.238581 -6.320118 -0.62544 -26.924189 -3.827599 -3.898372 -49.475605 -4.060227 -13.708525 -7.363476 -3.720938 18.14115 -14.052739 -3.242678 3e-06 -18.787268 1e-06 -0.429713 -8.456041 2.555501 -1e-06 -2e-06 4e-06 -15.923538 -20.094482 -5.473581 30.419218 -7.190823 1.735926 3e-06 -8.162924 -1e-06 -1.861902 -22.861467 -6.167941 -0.0 -4e-06 -0.0 161.104965 -6.202348 -7.333677 23.148256 0.039972 0.171392 -70.206108 4.283342 -5.377795 -8.156503 1.558877 2.071265 -0.999999 0.0 0.0 -3.999972 -6.31712 -8.376518 37.439831 0.015123 0.202674 -90.993378 8.286173 -2.700312 -9.917907 0.808608 1.656098 -1.000002 -0.0 -0.0 
0.0 0.0 0.0 0.0 -0.0 0.0 -1.513696 97.046249 -0.652406 91.706696 2.246439 87.659294 7.031515 0.608921 -0.469539 -8.985076 -0.47902 -0.686083 20.13555 -0.69041 -3.716893 26.200796 -3.681688 2.870868 -2.528008 -0.637565 -3.639649 -34.611683 -1.583747 -3.366156 6e-06 0.0 0.0 -0.002729 0.011994 -0.082213 0.038226 0.066651 -0.052546 0.024573 -0.051842 -0.112782 -89.050652 -76.772438 108.849838 33.611839 -45.723061 13.518521 38.080116 -0.860409 -0.019051 14.130188 7.76955 22.620928 17.636625 -26.322733 52.41119 -19.466663 -14.395598 29.410389 -0.0 -8.774822 -1e-06 15.969083 -18.032009 5.983494 -0.609777 -1.795653 -3.889328 -4.80709 -11.046811 -2.937848 3e-06 -20.976019 0.0 -5.019973 -25.03356 -4.03188 6e-06 0.0 -1e-06 -10.634535 -5.686972 -3.565586 10.573275 -17.922953 -3.1139 3e-06 -13.821211 2e-06 -0.501781 -31.181505 -4.027014 -11.267949 -59.708183 7.375342 -13.982715 -7.150196 -2.875041 13.772731 -8.401494 -3.218242 0.347731 -34.211555 0.771656 -0.963028 -17.733372 2.621019 1e-06 0.0 0.0 -17.346422 -20.095219 -4.201779 21.757559 -1.638375 3.866426 2e-06 -6.338824 1e-06 -1.69759 -22.591749 -6.194005 -0.0 -3e-06 -2e-06 90.772308 -77.778549 111.481758 39.11253 -47.337532 10.217371 40.841152 0.161585 -0.134779 0.838246 16.166677 3.987484 22.182119 -20.375898 49.933331 -16.701822 -16.743536 28.47654 -3e-06 -12.690604 2e-06 16.450521 -17.539024 2.294866 -0.10592 -1.513857 -4.27588 -5.039042 -5.612873 -2.953557 5e-06 -11.020528 -2e-06 -6.1113 -15.895338 -3.840472 0.0 -0.0 -1e-06 -10.283373 -5.68029 -4.341839 11.028299 -11.302411 -2.372634 -1.384269 -14.238587 -6.320124 -0.625439 -26.924204 -3.827599 -3.876884 -49.478668 -4.035012 -13.708528 -7.363477 -3.720937 18.141159 -14.052746 -3.242678 7e-06 -18.787275 -2e-06 -0.429712 -8.456047 2.555504 1e-06 -1e-06 2e-06 -15.923539 -20.094494 -5.473586 30.419224 -7.190832 1.735927 3e-06 -8.162929 0.0 -1.861901 -22.861483 -6.167946 1e-06 -2e-06 -1e-06 160.87117 -6.440794 -7.939726 24.632809 0.045294 0.151036 -71.690666 3.824582 -4.907482 -8.012395 1.550982 2.076781 -0.999998 0.0 0.0 -3.601699 -6.504623 -7.962661 36.914417 0.009852 0.223518 -90.34864 8.988689 -3.082917 -10.318806 0.827885 1.659568 -1.000003 0.0 -0.0 
0.0 0.0 0.0 0.0 -0.0 0.0 -0.779652 97.214104 0.275484 91.27552 1.934735 86.833824 6.992645 0.526733 -0.45932 -9.046174 -0.481508 -0.657793 20.099131 -0.669432 -3.674427 26.085032 -3.747074 2.870686 -2.559818 -0.654494 -3.755935 -34.448215 -1.573372 -3.615992 5e-06 0.0 -0.0 -0.0117 0.011148 -0.06744 0.010755 0.065692 -0.034315 0.003135 -0.053098 -0.103381 -88.642365 -76.75515 108.431381 33.758278 -45.887817 13.361397 38.706589 -0.784033 -0.009606 14.503366 7.966826 22.582249 17.636627 -26.322733 52.411198 -19.466663 -14.3956 29.410393 -1e-06 -8.774822 -2e-06 15.978522 -18.065626 5.980847 -0.609777 -1.795654 -3.889328 -4.807089 -11.046809 -2.93785 5e-06 -20.976015 1e-06 -5.01997 -25.033554 -4.03188 5e-06 -1e-06 1e-06 -10.634535 -5.686969 -3.565586 10.573276 -17.922947 -3.1139 3e-06 -13.821208 1e-06 -0.501778 -31.181505 -4.027015 -11.245397 -59.656506 7.356102 -13.982716 -7.150198 -2.87504 13.772732 -8.40149 -3.218243 0.347733 -34.211552 0.771657 -0.963029 -17.73337 2.62102 0.0 2e-06 0.0 -17.346422 -20.095217 -4.20178 21.757561 -1.638375 3.866426 2e-06 -6.338823 1e-06 -1.69759 -22.591747 -6.194005 -0.0 -4e-06 -2e-06 90.377083 -77.692734 111.798515 38.962708 -47.608223 10.907691 41.135185 0.196586 -0.095943 0.8874 15.995291 4.102408 22.182108 -20.375895 49.933319 -16.701817 -16.74353 28.47653 -3e-06 -12.6906 0.0 16.436842 -17.497633 2.312579 -0.10592 -1.513856 -4.27588 -5.039041 -5.612871 -2.95356 4e-06 -11.020521 -1e-06 -6.111297 -15.895334 -3.840468 -0.0 0.0 -1e-06 -10.283369 -5.680288 -4.341836 11.028296 -11.302406 -2.372634 -1.384267 -14.238581 -6.320123 -0.625437 -26.924187 -3.827601 -3.845825 -49.414089 -4.054588 -13.708525 -7.363475 -3.720937 18.141151 -14.052739 -3.242677 7e-06 -18.78727 -2e-06 -0.42971 -8.456044 2.555503 -0.0 1e-06 1e-06 -15.923532 -20.094481 -5.473586 30.41921 -7.190827 1.735924 4e-06 -8.162922 1e-06 -1.861898 -22.861469 -6.167942 -1e-06 -3e-06 -0.0 160.892181 -6.740417 -8.5991 25.553288 0.045111 0.135876 -72.875603 3.459182 -4.51628 -7.803662 1.529266 2.076603 -0.999999 0.0 0.0 -3.032107 -6.497283 -7.520202 36.069878 -0.002391 0.235006 -89.402222 9.578056 -3.370966 -10.775664 0.843437 1.659183 -1.000002 -0.0 0.0 
